# Blender 4.0.0
# www.blender.org
o Cylinder
v 0.000000 0.059048 -0.400000
v 0.000000 2.335495 -1.000000
v 0.195090 2.335495 -0.980785
v 0.078036 0.059048 -0.392314
v 0.382683 2.335495 -0.923879
v 0.555570 2.335495 -0.831469
v 0.153073 0.059048 -0.369552
v 0.707107 2.335495 -0.707107
v 0.831469 2.335495 -0.555570
v 0.222228 0.059048 -0.332588
v 0.923879 2.335495 -0.382683
v 0.980785 2.335495 -0.195090
v 0.282843 0.059048 -0.282843
v 1.000000 2.335495 0.000000
v 0.980785 2.335495 0.195090
v 0.923879 2.335495 0.382683
v 0.332588 0.059048 -0.222228
v 0.831469 2.335495 0.555570
v 0.707107 2.335495 0.707107
v 0.369552 0.059048 -0.153073
v 0.555570 2.335495 0.831469
v 0.382683 2.335495 0.923879
v 0.392314 0.059048 -0.078036
v 0.195090 2.335495 0.980785
v 0.400000 0.059048 0.000000
v 0.000000 2.335495 1.000000
v -0.195090 2.335495 0.980785
v 0.392314 0.059048 0.078036
v -0.382683 2.335495 0.923879
v -0.555570 2.335495 0.831469
v 0.369552 0.059048 0.153073
v -0.707107 2.335495 0.707107
v -0.831469 2.335495 0.555570
v 0.332588 0.059048 0.222228
v -0.923879 2.335495 0.382683
v -0.980785 2.335495 0.195090
v 0.282843 0.059048 0.282843
v -1.000000 2.335495 0.000000
v -0.980785 2.335495 -0.195090
v 0.222228 0.059048 0.332588
v -0.923879 2.335495 -0.382683
v -0.831469 2.335495 -0.555570
v 0.153073 0.059048 0.369552
v -0.707107 2.335495 -0.707107
v -0.555570 2.335495 -0.831469
v 0.078036 0.059048 0.392314
v -0.382683 2.335495 -0.923879
v -0.195090 2.335495 -0.980785
v 0.000000 4.335494 0.000000
v 0.000000 0.059048 0.400000
v -0.078036 0.059048 0.392314
v -0.153073 0.059048 0.369552
v -0.222228 0.059048 0.332588
v -0.282843 0.059048 0.282843
v -0.332588 0.059048 0.222228
v -0.369552 0.059048 0.153073
v -0.392314 0.059048 0.078036
v -0.400000 0.059048 0.000000
v -0.392314 0.059048 -0.078036
v -0.369552 0.059048 -0.153073
v -0.332588 0.059048 -0.222228
v -0.282843 0.059048 -0.282843
v -0.222228 0.059048 -0.332588
v -0.153073 0.059048 -0.369552
v -0.078036 0.059048 -0.392314
v 0.000000 2.335495 -0.400000
v 0.078036 2.335495 -0.392314
v 0.153073 2.335495 -0.369552
v 0.222228 2.335495 -0.332588
v 0.282843 2.335495 -0.282843
v 0.332588 2.335495 -0.222228
v 0.369552 2.335495 -0.153073
v 0.392314 2.335495 -0.078036
v 0.400000 2.335495 0.000000
v 0.392314 2.335495 0.078036
v 0.369552 2.335495 0.153073
v 0.332588 2.335495 0.222228
v 0.282843 2.335495 0.282843
v 0.222228 2.335495 0.332588
v 0.153073 2.335495 0.369552
v 0.078036 2.335495 0.392314
v 0.000000 2.335495 0.400000
v -0.078036 2.335495 0.392314
v -0.153073 2.335495 0.369552
v -0.222228 2.335495 0.332588
v -0.282843 2.335495 0.282843
v -0.332588 2.335495 0.222228
v -0.369552 2.335495 0.153073
v -0.392314 2.335495 0.078036
v -0.400000 2.335495 0.000000
v -0.392314 2.335495 -0.078036
v -0.369552 2.335495 -0.153073
v -0.332588 2.335495 -0.222228
v -0.282843 2.335495 -0.282843
v -0.222228 2.335495 -0.332588
v -0.153073 2.335495 -0.369552
v -0.078036 2.335495 -0.392314
vn 0.0980 -0.0000 -0.9952
vn 0.2903 -0.0000 -0.9569
vn 0.4714 -0.0000 -0.8819
vn 0.6344 -0.0000 -0.7730
vn 0.7730 -0.0000 -0.6344
vn 0.8819 -0.0000 -0.4714
vn 0.9569 -0.0000 -0.2903
vn 0.9952 -0.0000 -0.0980
vn 0.9952 -0.0000 0.0980
vn 0.9569 -0.0000 0.2903
vn 0.8819 -0.0000 0.4714
vn 0.7730 -0.0000 0.6344
vn 0.6344 -0.0000 0.7730
vn 0.4714 -0.0000 0.8819
vn 0.2903 -0.0000 0.9569
vn 0.0980 -0.0000 0.9952
vn -0.0980 -0.0000 0.9952
vn -0.2903 -0.0000 0.9569
vn -0.4714 -0.0000 0.8819
vn -0.6344 -0.0000 0.7730
vn -0.7730 -0.0000 0.6344
vn -0.8819 -0.0000 0.4714
vn -0.9569 -0.0000 0.2903
vn -0.9952 -0.0000 0.0980
vn -0.9952 -0.0000 -0.0980
vn -0.9569 -0.0000 -0.2903
vn -0.8819 -0.0000 -0.4714
vn -0.7730 -0.0000 -0.6344
vn -0.6344 -0.0000 -0.7730
vn -0.4714 -0.0000 -0.8819
vn -0.2903 -0.0000 -0.9569
vn -0.0980 -0.0000 -0.9952
vn -0.0000 -1.0000 -0.0000
vn 0.0878 0.4455 -0.8910
vn 0.2599 0.4455 -0.8567
vn 0.4220 0.4455 -0.7896
vn 0.5680 0.4455 -0.6921
vn 0.6921 0.4455 -0.5680
vn 0.7896 0.4455 -0.4220
vn 0.8567 0.4455 -0.2599
vn 0.8910 0.4455 -0.0878
vn 0.8910 0.4455 0.0878
vn 0.8567 0.4455 0.2599
vn 0.7896 0.4455 0.4220
vn 0.6921 0.4455 0.5680
vn 0.5680 0.4455 0.6921
vn 0.4220 0.4455 0.7896
vn 0.2599 0.4455 0.8567
vn 0.0878 0.4455 0.8910
vn -0.0878 0.4455 0.8910
vn -0.2599 0.4455 0.8567
vn -0.4220 0.4455 0.7896
vn -0.5680 0.4455 0.6921
vn -0.6921 0.4455 0.5680
vn -0.7896 0.4455 0.4220
vn -0.8567 0.4455 0.2599
vn -0.8910 0.4455 0.0878
vn -0.8910 0.4455 -0.0878
vn -0.8567 0.4455 -0.2599
vn -0.7896 0.4455 -0.4220
vn -0.6921 0.4455 -0.5680
vn -0.5680 0.4455 -0.6921
vn -0.4220 0.4455 -0.7896
vn -0.2599 0.4455 -0.8567
vn -0.0878 0.4455 -0.8910
vt 0.741649 0.522272
vt 0.760486 0.517149
vt 0.842312 0.818007
vt 0.823475 0.823130
vt 0.722811 0.527396
vt 0.804637 0.828253
vt 0.703974 0.532519
vt 0.785800 0.833377
vt 0.685136 0.537642
vt 0.766962 0.838500
vt 0.748125 0.843623
vt 0.666299 0.542766
vt 0.729287 0.848747
vt 0.647461 0.547889
vt 0.710450 0.853870
vt 0.628624 0.553012
vt 0.691612 0.858993
vt 0.609787 0.558136
vt 0.672775 0.864116
vt 0.590949 0.563259
vt 0.653938 0.869240
vt 0.572112 0.568382
vt 0.635100 0.874363
vt 0.553274 0.573506
vt 0.616263 0.879486
vt 0.534437 0.578629
vt 0.597425 0.884610
vt 0.515599 0.583752
vt 0.578588 0.889733
vt 0.496762 0.588875
vt 0.559750 0.894856
vt 0.477924 0.593999
vt 0.540913 0.899980
vt 0.459087 0.599122
vt 0.522075 0.905103
vt 0.440250 0.604245
vt 0.503238 0.910226
vt 0.421412 0.609369
vt 0.484401 0.915350
vt 0.402575 0.614492
vt 0.465563 0.920473
vt 0.383737 0.619615
vt 0.364900 0.624739
vt 0.446726 0.925596
vt 0.346062 0.629862
vt 0.427888 0.930720
vt 0.327225 0.634985
vt 0.409051 0.935843
vt 0.308388 0.640109
vt 0.390213 0.940966
vt 0.289550 0.645232
vt 0.371376 0.946090
vt 0.270713 0.650355
vt 0.352538 0.951213
vt 0.251875 0.655479
vt 0.333701 0.956336
vt 0.233038 0.660602
vt 0.314864 0.961460
vt 0.214200 0.665725
vt 0.296026 0.966583
vt 0.195363 0.670849
vt 0.277189 0.971706
vt 0.176525 0.675972
vt 0.258351 0.976830
vt 0.157688 0.681095
vt 0.239514 0.981953
vt 0.733116 0.334871
vt 0.750159 0.336550
vt 0.767203 0.334871
vt 0.783591 0.329900
vt 0.798695 0.321827
vt 0.811933 0.310962
vt 0.822798 0.297724
vt 0.830871 0.282620
vt 0.835842 0.266231
vt 0.837521 0.249188
vt 0.835842 0.232145
vt 0.830871 0.215756
vt 0.822798 0.200652
vt 0.811933 0.187414
vt 0.798695 0.176549
vt 0.783591 0.168476
vt 0.767203 0.163505
vt 0.750159 0.161826
vt 0.733116 0.163505
vt 0.716727 0.168476
vt 0.701624 0.176549
vt 0.688385 0.187414
vt 0.677521 0.200652
vt 0.669448 0.215756
vt 0.664476 0.232145
vt 0.662798 0.249188
vt 0.664476 0.266231
vt 0.669448 0.282620
vt 0.677521 0.297724
vt 0.688385 0.310962
vt 0.701624 0.321827
vt 0.716727 0.329900
vt 0.248875 0.489968
vt 0.248875 0.249188
vt 0.295849 0.485342
vt 0.341018 0.471640
vt 0.382646 0.449390
vt 0.419133 0.419446
vt 0.449077 0.382959
vt 0.471328 0.341331
vt 0.485029 0.296162
vt 0.489656 0.249188
vt 0.485029 0.202214
vt 0.471328 0.157045
vt 0.449077 0.115418
vt 0.419133 0.078931
vt 0.382646 0.048986
vt 0.341018 0.026736
vt 0.295849 0.013034
vt 0.248875 0.008408
vt 0.201901 0.013034
vt 0.156733 0.026736
vt 0.115105 0.048986
vt 0.078618 0.078931
vt 0.048674 0.115418
vt 0.026423 0.157045
vt 0.012721 0.202214
vt 0.008095 0.249188
vt 0.012721 0.296162
vt 0.026423 0.341331
vt 0.048674 0.382959
vt 0.078618 0.419446
vt 0.115105 0.449390
vt 0.156733 0.471640
vt 0.703528 0.485342
vt 0.750501 0.489968
vt 0.797475 0.485342
vt 0.842644 0.471640
vt 0.884272 0.449390
vt 0.920759 0.419446
vt 0.950703 0.382959
vt 0.972954 0.341331
vt 0.986656 0.296162
vt 0.991282 0.249188
vt 0.986656 0.202214
vt 0.972954 0.157045
vt 0.950703 0.115418
vt 0.920759 0.078931
vt 0.884272 0.048986
vt 0.842644 0.026736
vt 0.797475 0.013034
vt 0.769291 0.154726
vt 0.787358 0.160207
vt 0.804010 0.169107
vt 0.818604 0.181085
vt 0.830582 0.195680
vt 0.839483 0.212331
vt 0.844963 0.230398
vt 0.846814 0.249188
vt 0.844963 0.267978
vt 0.839483 0.286045
vt 0.830582 0.302696
vt 0.818604 0.317291
vt 0.804010 0.329269
vt 0.787358 0.338169
vt 0.769291 0.343650
vt 0.750502 0.345500
vt 0.731712 0.343650
vt 0.750501 0.008408
vt 0.703528 0.013034
vt 0.658359 0.026736
vt 0.616731 0.048986
vt 0.580244 0.078931
vt 0.550300 0.115418
vt 0.528049 0.157045
vt 0.514348 0.202214
vt 0.509721 0.249188
vt 0.514348 0.296162
vt 0.528049 0.341331
vt 0.550300 0.382959
vt 0.580244 0.419446
vt 0.616731 0.449390
vt 0.658359 0.471640
vt 0.713644 0.338169
vt 0.696993 0.329269
vt 0.682398 0.317291
vt 0.670421 0.302696
vt 0.661521 0.286045
vt 0.656040 0.267978
vt 0.654189 0.249188
vt 0.656040 0.230398
vt 0.661521 0.212331
vt 0.670421 0.195680
vt 0.682398 0.181085
vt 0.696993 0.169107
vt 0.713645 0.160207
vt 0.731712 0.154726
vt 0.750502 0.152876
vt 0.201901 0.485342
s 0
f 4/1/1 1/2/1 66/3/1 67/4/1
f 7/5/2 4/1/2 67/4/2 68/6/2
f 10/7/3 7/5/3 68/6/3 69/8/3
f 13/9/4 10/7/4 69/8/4 70/10/4
f 71/11/5 17/12/5 13/9/5 70/10/5
f 72/13/6 20/14/6 17/12/6 71/11/6
f 73/15/7 23/16/7 20/14/7 72/13/7
f 74/17/8 25/18/8 23/16/8 73/15/8
f 75/19/9 28/20/9 25/18/9 74/17/9
f 76/21/10 31/22/10 28/20/10 75/19/10
f 77/23/11 34/24/11 31/22/11 76/21/11
f 78/25/12 37/26/12 34/24/12 77/23/12
f 79/27/13 40/28/13 37/26/13 78/25/13
f 80/29/14 43/30/14 40/28/14 79/27/14
f 81/31/15 46/32/15 43/30/15 80/29/15
f 82/33/16 50/34/16 46/32/16 81/31/16
f 83/35/17 51/36/17 50/34/17 82/33/17
f 84/37/18 52/38/18 51/36/18 83/35/18
f 85/39/19 53/40/19 52/38/19 84/37/19
f 86/41/20 54/42/20 53/40/20 85/39/20
f 55/43/21 54/42/21 86/41/21 87/44/21
f 56/45/22 55/43/22 87/44/22 88/46/22
f 57/47/23 56/45/23 88/46/23 89/48/23
f 58/49/24 57/47/24 89/48/24 90/50/24
f 59/51/25 58/49/25 90/50/25 91/52/25
f 60/53/26 59/51/26 91/52/26 92/54/26
f 61/55/27 60/53/27 92/54/27 93/56/27
f 62/57/28 61/55/28 93/56/28 94/58/28
f 63/59/29 62/57/29 94/58/29 95/60/29
f 64/61/30 63/59/30 95/60/30 96/62/30
f 65/63/31 64/61/31 96/62/31 97/64/31
f 1/65/32 65/63/32 97/64/32 66/66/32
f 65/67/33 1/68/33 4/69/33 7/70/33 10/71/33 13/72/33 17/73/33 20/74/33 23/75/33 25/76/33 28/77/33 31/78/33 34/79/33 37/80/33 40/81/33 43/82/33 46/83/33 50/84/33 51/85/33 52/86/33 53/87/33 54/88/33 55/89/33 56/90/33 57/91/33 58/92/33 59/93/33 60/94/33 61/95/33 62/96/33 63/97/33 64/98/33
f 2/99/34 49/100/34 3/101/34
f 3/101/35 49/100/35 5/102/35
f 5/102/36 49/100/36 6/103/36
f 6/103/37 49/100/37 8/104/37
f 8/104/38 49/100/38 9/105/38
f 9/105/39 49/100/39 11/106/39
f 11/106/40 49/100/40 12/107/40
f 12/107/41 49/100/41 14/108/41
f 49/100/42 15/109/42 14/108/42
f 49/100/43 16/110/43 15/109/43
f 49/100/44 18/111/44 16/110/44
f 49/100/45 19/112/45 18/111/45
f 49/100/46 21/113/46 19/112/46
f 49/100/47 22/114/47 21/113/47
f 49/100/48 24/115/48 22/114/48
f 49/100/49 26/116/49 24/115/49
f 27/117/50 26/116/50 49/100/50
f 29/118/51 27/117/51 49/100/51
f 30/119/52 29/118/52 49/100/52
f 32/120/53 30/119/53 49/100/53
f 33/121/54 32/120/54 49/100/54
f 35/122/55 33/121/55 49/100/55
f 36/123/56 35/122/56 49/100/56
f 38/124/57 36/123/57 49/100/57
f 39/125/58 38/124/58 49/100/58
f 41/126/59 39/125/59 49/100/59
f 42/127/60 41/126/60 49/100/60
f 44/128/61 42/127/61 49/100/61
f 45/129/62 44/128/62 49/100/62
f 47/130/63 45/129/63 49/100/63
f 48/131/33 2/132/33 3/133/33 5/134/33 6/135/33 8/136/33 9/137/33 11/138/33 12/139/33 14/140/33 15/141/33 16/142/33 18/143/33 19/144/33 21/145/33 22/146/33 24/147/33 81/148/33 80/149/33 79/150/33 78/151/33 77/152/33 76/153/33 75/154/33 74/155/33 73/156/33 72/157/33 71/158/33 70/159/33 69/160/33 68/161/33 67/162/33 66/163/33 97/164/33
f 81/148/33 24/147/33 26/165/33 27/166/33 29/167/33 30/168/33 32/169/33 33/170/33 35/171/33 36/172/33 38/173/33 39/174/33 41/175/33 42/176/33 44/177/33 45/178/33 47/179/33 48/131/33 97/164/33 96/180/33 95/181/33 94/182/33 93/183/33 92/184/33 91/185/33 90/186/33 89/187/33 88/188/33 87/189/33 86/190/33 85/191/33 84/192/33 83/193/33 82/194/33
f 48/195/64 47/130/64 49/100/64
f 48/195/65 49/100/65 2/99/65
