# Blender 4.0.1
# www.blender.org
o Cylinder
v 0.000000 -1.000000 -1.000000
v 0.866025 -1.000000 -0.500000
v 0.866025 -1.000000 0.500000
v 0.000000 -1.000000 1.000000
v -0.866025 -1.000000 0.500000
v -0.866025 -1.000000 -0.500000
v 0.000000 -13.700886 -1.000000
v 0.000000 -13.700886 -1.000000
v 0.000000 -0.043939 -1.000000
v 0.000000 -0.043939 -1.000000
v 0.000000 -0.043939 -1.000000
v 0.000000 -0.043939 -1.000000
v 0.866025 -13.700886 -0.500000
v 0.866025 -13.700886 -0.500000
v 0.866025 -0.043939 -0.500000
v 0.866025 -0.043939 -0.500000
v 0.866025 -0.043939 -0.500000
v 0.866025 -0.043939 -0.500000
v 0.866025 -13.700886 0.500000
v 0.866025 -13.700886 0.500000
v 0.866025 -0.043939 0.500000
v 0.866025 -0.043939 0.500000
v 0.866025 -0.043939 0.500000
v 0.866025 -0.043939 0.500000
v 0.000000 -13.700886 1.000000
v 0.000000 -13.700886 1.000000
v 0.000000 -0.043939 1.000000
v 0.000000 -0.043939 1.000000
v 0.000000 -0.043939 1.000000
v 0.000000 -0.043939 1.000000
v -0.866025 -13.700886 0.500000
v -0.866025 -13.700886 0.500000
v -0.866025 -0.043939 0.500000
v -0.866025 -0.043939 0.500000
v -0.866025 -0.043939 0.500000
v -0.866025 -0.043939 0.500000
v -0.866025 -13.700886 -0.500000
v -0.866025 -13.700886 -0.500000
v -0.866025 -0.043939 -0.500000
v -0.866025 -0.043939 -0.500000
v -0.866025 -0.043939 -0.500000
v -0.866025 -0.043939 -0.500000
v 0.818924 0.000000 -0.472806
v 0.818924 0.000000 -0.472806
v 0.818924 0.000000 -0.472806
v 0.000000 0.000000 -0.945612
v 0.000000 0.000000 -0.945612
v 0.000000 0.000000 -0.945612
v 0.818924 0.000000 0.472806
v 0.818924 0.000000 0.472806
v 0.818924 0.000000 0.472806
v 0.000000 0.000000 0.945612
v 0.000000 0.000000 0.945612
v 0.000000 0.000000 0.945612
v -0.818924 0.000000 0.472806
v -0.818924 0.000000 0.472806
v -0.818924 0.000000 0.472806
v -0.818924 0.000000 -0.472806
v -0.818924 0.000000 -0.472806
v -0.818924 0.000000 -0.472806
v 0.866025 -0.043939 -0.500000
v 0.866025 -0.043939 -0.500000
v 0.866025 -0.043939 -0.500000
v 0.866025 -0.043939 -0.500000
v 0.000000 -0.043939 -1.000000
v 0.000000 -0.043939 -1.000000
v 0.000000 -0.043939 -1.000000
v 0.000000 -0.043939 -1.000000
v 0.866025 -0.043939 0.500000
v 0.866025 -0.043939 0.500000
v 0.866025 -0.043939 0.500000
v 0.866025 -0.043939 0.500000
v 0.000000 -0.043939 1.000000
v 0.000000 -0.043939 1.000000
v 0.000000 -0.043939 1.000000
v 0.000000 -0.043939 1.000000
v -0.866025 -0.043939 0.500000
v -0.866025 -0.043939 0.500000
v -0.866025 -0.043939 0.500000
v -0.866025 -0.043939 0.500000
v -0.866025 -0.043939 -0.500000
v -0.866025 -0.043939 -0.500000
v -0.866025 -0.043939 -0.500000
v -0.866025 -0.043939 -0.500000
v 0.866025 -0.043939 -0.500000
v 0.866025 -0.043939 -0.500000
v 0.866025 -0.043939 -0.500000
v 0.866025 -0.043939 -0.500000
v 0.000000 -0.043939 -1.000000
v 0.000000 -0.043939 -1.000000
v 0.000000 -0.043939 -1.000000
v 0.000000 -0.043939 -1.000000
v 0.866025 -0.043939 0.500000
v 0.866025 -0.043939 0.500000
v 0.866025 -0.043939 0.500000
v 0.866025 -0.043939 0.500000
v 0.000000 -0.043939 1.000000
v 0.000000 -0.043939 1.000000
v 0.000000 -0.043939 1.000000
v 0.000000 -0.043939 1.000000
v -0.866025 -0.043939 0.500000
v -0.866025 -0.043939 0.500000
v -0.866025 -0.043939 0.500000
v -0.866025 -0.043939 0.500000
v -0.866025 -0.043939 -0.500000
v -0.866025 -0.043939 -0.500000
v -0.866025 -0.043939 -0.500000
v -0.866025 -0.043939 -0.500000
v 0.866025 -0.043939 -0.500000
v 0.866025 -0.043939 -0.500000
v 0.866025 -0.043939 -0.500000
v 0.866025 -0.043939 -0.500000
v 0.000000 -0.043939 -1.000000
v 0.000000 -0.043939 -1.000000
v 0.000000 -0.043939 -1.000000
v 0.000000 -0.043939 -1.000000
v 0.866025 -0.043939 0.500000
v 0.866025 -0.043939 0.500000
v 0.866025 -0.043939 0.500000
v 0.866025 -0.043939 0.500000
v 0.000000 -0.043939 1.000000
v 0.000000 -0.043939 1.000000
v 0.000000 -0.043939 1.000000
v 0.000000 -0.043939 1.000000
v -0.866025 -0.043939 0.500000
v -0.866025 -0.043939 0.500000
v -0.866025 -0.043939 0.500000
v -0.866025 -0.043939 0.500000
v -0.866025 -0.043939 -0.500000
v -0.866025 -0.043939 -0.500000
v -0.866025 -0.043939 -0.500000
v -0.866025 -0.043939 -0.500000
v 0.866025 -0.043939 -0.500000
v 0.866025 -0.043939 -0.500000
v 0.866025 -0.043939 -0.500000
v 0.866025 -0.043939 -0.500000
v 0.000000 -0.043939 -1.000000
v 0.000000 -0.043939 -1.000000
v 0.000000 -0.043939 -1.000000
v 0.000000 -0.043939 -1.000000
v 0.866025 -0.043939 0.500000
v 0.866025 -0.043939 0.500000
v 0.866025 -0.043939 0.500000
v 0.866025 -0.043939 0.500000
v 0.000000 -0.043939 1.000000
v 0.000000 -0.043939 1.000000
v 0.000000 -0.043939 1.000000
v 0.000000 -0.043939 1.000000
v -0.866025 -0.043939 0.500000
v -0.866025 -0.043939 0.500000
v -0.866025 -0.043939 0.500000
v -0.866025 -0.043939 0.500000
v -0.866025 -0.043939 -0.500000
v -0.866025 -0.043939 -0.500000
v -0.866025 -0.043939 -0.500000
v -0.866025 -0.043939 -0.500000
v 0.866025 -0.043939 -0.500000
v 0.866025 -0.043939 -0.500000
v 0.866025 -0.043939 -0.500000
v 0.866025 -0.043939 -0.500000
v 0.000000 -0.043939 -1.000000
v 0.000000 -0.043939 -1.000000
v 0.000000 -0.043939 -1.000000
v 0.000000 -0.043939 -1.000000
v 0.866025 -0.043939 0.500000
v 0.866025 -0.043939 0.500000
v 0.866025 -0.043939 0.500000
v 0.866025 -0.043939 0.500000
v 0.000000 -0.043939 1.000000
v 0.000000 -0.043939 1.000000
v 0.000000 -0.043939 1.000000
v 0.000000 -0.043939 1.000000
v -0.866025 -0.043939 0.500000
v -0.866025 -0.043939 0.500000
v -0.866025 -0.043939 0.500000
v -0.866025 -0.043939 0.500000
v -0.866025 -0.043939 -0.500000
v -0.866025 -0.043939 -0.500000
v -0.866025 -0.043939 -0.500000
v -0.866025 -0.043939 -0.500000
vn -0.5000 -0.0000 -0.8660
vn -0.0000 1.0000 -0.0000
vn -1.0000 -0.0000 -0.0000
vn 0.6821 0.7312 -0.0000
vn 0.5000 -0.0000 0.8660
vn 0.3411 0.7312 -0.5907
vn -0.5000 -0.0000 0.8660
vn 1.0000 -0.0000 -0.0000
vn -0.3411 0.7312 -0.5907
vn -0.3411 0.7312 0.5907
vn -0.6821 0.7312 -0.0000
vn 0.3411 0.7312 0.5907
vn 0.5000 -0.0000 -0.8660
vt 0.166667 0.500000
vt 0.166667 1.000000
vt -0.000000 1.000000
vt -0.000000 0.500000
vt 0.666667 1.000000
vt 0.833333 1.000000
vt 0.500000 1.000000
vt 0.333333 1.000000
vt 0.333333 0.500000
vt 1.000000 1.000000
vt 0.446542 0.363473
vt 0.446542 0.136527
vt 0.457846 0.130000
vt 0.457846 0.370000
vt 0.666667 0.500000
vt 0.500000 0.500000
vt 0.250000 0.476947
vt 0.250000 0.490000
vt 0.833333 0.500000
vt 0.042154 0.370000
vt 0.250000 0.010000
vt 0.042154 0.130000
vt 0.053458 0.363473
vt 0.053458 0.136527
vt 0.250000 0.023053
vt 1.000000 0.500000
s 0
f 38/1/1 41/2/1 11/3/1 7/4/1
f 21/5/2 16/6/2 63/6/2 72/5/2
f 27/7/2 22/5/2 71/5/2 76/7/2
f 33/8/2 28/7/2 75/7/2 80/8/2
f 32/9/3 35/8/3 42/2/3 37/1/3
f 39/2/2 34/8/2 79/8/2 84/2/2
f 15/6/2 9/10/2 66/10/2 64/6/2
f 45/11/4 49/12/4 165/13/4 158/14/4
f 20/15/5 23/5/5 30/7/5 25/16/5
f 46/17/6 43/11/6 157/14/6 161/18/6
f 12/3/2 40/2/2 83/2/2 67/3/2
f 26/16/7 29/7/7 36/8/7 31/9/7
f 14/19/8 17/6/8 24/5/8 19/15/8
f 87/14/2 96/13/2 69/13/2 62/14/2
f 107/20/2 91/18/2 68/18/2 82/20/2
f 99/21/2 104/22/2 77/22/2 74/21/2
f 103/22/2 108/20/2 81/20/2 78/22/2
f 114/18/2 112/14/2 85/14/2 89/18/2
f 95/13/2 100/21/2 73/21/2 70/13/2
f 111/14/2 120/13/2 93/13/2 86/14/2
f 131/20/2 115/18/2 92/18/2 106/20/2
f 123/21/2 128/22/2 101/22/2 98/21/2
f 127/22/2 132/20/2 105/20/2 102/22/2
f 138/18/2 136/14/2 109/14/2 113/18/2
f 119/13/2 124/21/2 97/21/2 94/13/2
f 135/14/2 144/13/2 117/13/2 110/14/2
f 155/20/2 139/18/2 116/18/2 130/20/2
f 147/21/2 152/22/2 125/22/2 122/21/2
f 151/22/2 156/20/2 129/20/2 126/22/2
f 162/18/2 160/14/2 133/14/2 137/18/2
f 143/13/2 148/21/2 121/21/2 118/13/2
f 159/14/2 168/13/2 141/13/2 134/14/2
f 179/20/2 163/18/2 140/18/2 154/20/2
f 171/21/2 176/22/2 149/22/2 146/21/2
f 175/22/2 180/20/2 153/20/2 150/22/2
f 167/13/2 172/21/2 145/21/2 142/13/2
f 44/11/2 48/17/2 59/23/2 56/24/2 53/25/2 50/12/2
f 60/23/9 47/17/9 164/18/9 178/20/9
f 54/25/10 55/24/10 173/22/10 170/21/10
f 57/24/11 58/23/11 177/20/11 174/22/11
f 90/18/2 88/14/2 61/14/2 65/18/2
f 51/12/12 52/25/12 169/21/12 166/13/12
f 9/10/2 10/10/2 11/10/2 12/10/2
f 15/6/2 16/6/2 17/6/2 18/6/2
f 21/5/2 22/5/2 23/5/2 24/5/2
f 27/7/2 28/7/2 29/7/2 30/7/2
f 33/8/2 34/8/2 35/8/2 36/8/2
f 39/2/2 40/2/2 41/2/2 42/2/2
f 43/11/2 44/11/2 45/11/2
f 46/17/2 47/17/2 48/17/2
f 49/12/2 50/12/2 51/12/2
f 52/25/2 53/25/2 54/25/2
f 55/24/2 56/24/2 57/24/2
f 58/23/2 59/23/2 60/23/2
f 61/14/2 62/14/2 63/14/2 64/14/2
f 65/18/2 66/18/2 67/18/2 68/18/2
f 69/13/2 70/13/2 71/13/2 72/13/2
f 73/21/2 74/21/2 75/21/2 76/21/2
f 77/22/2 78/22/2 79/22/2 80/22/2
f 81/20/2 82/20/2 83/20/2 84/20/2
f 85/14/2 86/14/2 87/14/2 88/14/2
f 89/18/2 90/18/2 91/18/2 92/18/2
f 93/13/2 94/13/2 95/13/2 96/13/2
f 97/21/2 98/21/2 99/21/2 100/21/2
f 101/22/2 102/22/2 103/22/2 104/22/2
f 105/20/2 106/20/2 107/20/2 108/20/2
f 109/14/2 110/14/2 111/14/2 112/14/2
f 113/18/2 114/18/2 115/18/2 116/18/2
f 117/13/2 118/13/2 119/13/2 120/13/2
f 121/21/2 122/21/2 123/21/2 124/21/2
f 125/22/2 126/22/2 127/22/2 128/22/2
f 129/20/2 130/20/2 131/20/2 132/20/2
f 133/14/2 134/14/2 135/14/2 136/14/2
f 137/18/2 138/18/2 139/18/2 140/18/2
f 141/13/2 142/13/2 143/13/2 144/13/2
f 145/21/2 146/21/2 147/21/2 148/21/2
f 149/22/2 150/22/2 151/22/2 152/22/2
f 153/20/2 154/20/2 155/20/2 156/20/2
f 157/14/2 158/14/2 159/14/2 160/14/2
f 161/18/2 162/18/2 163/18/2 164/18/2
f 165/13/2 166/13/2 167/13/2 168/13/2
f 169/21/2 170/21/2 171/21/2 172/21/2
f 173/22/2 174/22/2 175/22/2 176/22/2
f 177/20/2 178/20/2 179/20/2 180/20/2
f 18/6/2 10/10/2 9/10/2 15/6/2
f 7/4/2 11/3/2 10/3/2 8/4/2
f 17/6/2 14/19/2 13/19/2 18/6/2
f 24/5/2 17/6/2 16/6/2 21/5/2
f 23/5/2 20/15/2 19/15/2 24/5/2
f 30/7/2 23/5/2 22/5/2 27/7/2
f 29/7/2 26/16/2 25/16/2 30/7/2
f 36/8/2 29/7/2 28/7/2 33/8/2
f 35/8/2 32/9/2 31/9/2 36/8/2
f 42/2/2 35/8/2 34/8/2 39/2/2
f 41/2/2 38/1/2 37/1/2 42/2/2
f 11/3/2 41/2/2 40/2/2 12/3/2
f 64/14/2 66/18/2 65/18/2 61/14/2
f 72/13/2 63/14/2 62/14/2 69/13/2
f 76/21/2 71/13/2 70/13/2 73/21/2
f 80/22/2 75/21/2 74/21/2 77/22/2
f 84/20/2 79/22/2 78/22/2 81/20/2
f 67/18/2 83/20/2 82/20/2 68/18/2
f 27/7/2 76/7/2 75/7/2 28/7/2
f 79/8/2 34/8/2 33/8/2 80/8/2
f 15/6/2 64/6/2 63/6/2 16/6/2
f 71/5/2 22/5/2 21/5/2 72/5/2
f 83/2/2 40/2/2 39/2/2 84/2/2
f 12/3/2 67/3/2 66/3/2 9/3/2
f 88/14/2 90/18/2 89/18/2 85/14/2
f 96/13/2 87/14/2 86/14/2 93/13/2
f 100/21/2 95/13/2 94/13/2 97/21/2
f 104/22/2 99/21/2 98/21/2 101/22/2
f 108/20/2 103/22/2 102/22/2 105/20/2
f 91/18/2 107/20/2 106/20/2 92/18/2
f 68/18/2 91/18/2 90/18/2 65/18/2
f 87/14/2 62/14/2 61/14/2 88/14/2
f 95/13/2 70/13/2 69/13/2 96/13/2
f 99/21/2 74/21/2 73/21/2 100/21/2
f 103/22/2 78/22/2 77/22/2 104/22/2
f 107/20/2 82/20/2 81/20/2 108/20/2
f 112/14/2 114/18/2 113/18/2 109/14/2
f 120/13/2 111/14/2 110/14/2 117/13/2
f 124/21/2 119/13/2 118/13/2 121/21/2
f 128/22/2 123/21/2 122/21/2 125/22/2
f 132/20/2 127/22/2 126/22/2 129/20/2
f 115/18/2 131/20/2 130/20/2 116/18/2
f 92/18/2 115/18/2 114/18/2 89/18/2
f 111/14/2 86/14/2 85/14/2 112/14/2
f 119/13/2 94/13/2 93/13/2 120/13/2
f 123/21/2 98/21/2 97/21/2 124/21/2
f 127/22/2 102/22/2 101/22/2 128/22/2
f 131/20/2 106/20/2 105/20/2 132/20/2
f 136/14/2 138/18/2 137/18/2 133/14/2
f 144/13/2 135/14/2 134/14/2 141/13/2
f 148/21/2 143/13/2 142/13/2 145/21/2
f 152/22/2 147/21/2 146/21/2 149/22/2
f 156/20/2 151/22/2 150/22/2 153/20/2
f 139/18/2 155/20/2 154/20/2 140/18/2
f 116/18/2 139/18/2 138/18/2 113/18/2
f 135/14/2 110/14/2 109/14/2 136/14/2
f 143/13/2 118/13/2 117/13/2 144/13/2
f 147/21/2 122/21/2 121/21/2 148/21/2
f 151/22/2 126/22/2 125/22/2 152/22/2
f 155/20/2 130/20/2 129/20/2 156/20/2
f 160/14/2 162/18/2 161/18/2 157/14/2
f 168/13/2 159/14/2 158/14/2 165/13/2
f 172/21/2 167/13/2 166/13/2 169/21/2
f 176/22/2 171/21/2 170/21/2 173/22/2
f 180/20/2 175/22/2 174/22/2 177/20/2
f 163/18/2 179/20/2 178/20/2 164/18/2
f 140/18/2 163/18/2 162/18/2 137/18/2
f 159/14/2 134/14/2 133/14/2 160/14/2
f 167/13/2 142/13/2 141/13/2 168/13/2
f 171/21/2 146/21/2 145/21/2 172/21/2
f 175/22/2 150/22/2 149/22/2 176/22/2
f 179/20/2 154/20/2 153/20/2 180/20/2
f 43/11/2 46/17/2 48/17/2 44/11/2
f 49/12/2 45/11/2 44/11/2 50/12/2
f 52/25/2 51/12/2 50/12/2 53/25/2
f 55/24/2 54/25/2 53/25/2 56/24/2
f 58/23/2 57/24/2 56/24/2 59/23/2
f 47/17/2 60/23/2 59/23/2 48/17/2
f 164/18/2 47/17/2 46/17/2 161/18/2
f 45/11/2 158/14/2 157/14/2 43/11/2
f 51/12/2 166/13/2 165/13/2 49/12/2
f 54/25/2 170/21/2 169/21/2 52/25/2
f 57/24/2 174/22/2 173/22/2 55/24/2
f 60/23/2 178/20/2 177/20/2 58/23/2
f 8/26/13 10/10/13 18/6/13 13/19/13
l 7 1
l 13 2
l 19 3
l 25 4
l 31 5
l 37 6
